<?xml version="1.0" encoding="UTF-8" standalone="no"?>
<svg
   xmlns:osb="http://www.openswatchbook.org/uri/2009/osb"
   xmlns:dc="http://purl.org/dc/elements/1.1/"
   xmlns:cc="http://creativecommons.org/ns#"
   xmlns:rdf="http://www.w3.org/1999/02/22-rdf-syntax-ns#"
   xmlns:svg="http://www.w3.org/2000/svg"
   xmlns="http://www.w3.org/2000/svg"
   id="svg8"
   version="1.1"
   viewBox="0 0 26.458333 26.458333"
   height="100"
   width="100">
  <defs
     id="defs2">
    <linearGradient
       id="linearGradient922"
       osb:paint="solid">
      <stop
         style="stop-color:#000000;stop-opacity:1;"
         offset="0"
         id="stop920" />
    </linearGradient>
    <linearGradient
       id="linearGradient863"
       osb:paint="solid">
      <stop
         style="stop-color:#0000ff;stop-opacity:1;"
         offset="0"
         id="stop861" />
    </linearGradient>
  </defs>
  <metadata
     id="metadata5">
    <rdf:RDF>
      <cc:Work
         rdf:about="">
        <dc:format>image/svg+xml</dc:format>
        <dc:type
           rdf:resource="http://purl.org/dc/dcmitype/StillImage" />
        <dc:title></dc:title>
      </cc:Work>
    </rdf:RDF>
  </metadata>
  <rect width="100%" height="100%" fill="#ffffff" />
  <g
     id="namelogo"
     fill="#008080">
    <g
       aria-label="λ"
       id="logo"
       style="font-weight:bold;font-size:50.915px;line-height:1.25;font-family:Calibri;-inkscape-font-specification:'Calibri Bold';stroke-width:0.530364"
       transform="matrix(0.37019074,0,0,0.37019074,-11.541767,-29.850096)">
      <path
         id="path3394"
         style="color:#000000;font-style:normal;font-variant:normal;font-weight:normal;font-stretch:normal;font-size:medium;line-height:1.25;font-family:Calibri;-inkscape-font-specification:'Calibri Bold';font-variant-ligatures:normal;font-variant-position:normal;font-variant-caps:normal;font-variant-numeric:normal;font-variant-alternates:normal;font-variant-east-asian:normal;font-feature-settings:normal;font-variation-settings:normal;text-indent:0;text-align:start;text-decoration:none;text-decoration-line:none;text-decoration-style:solid;text-decoration-color:#000000;letter-spacing:normal;word-spacing:normal;text-transform:none;writing-mode:lr-tb;direction:ltr;text-orientation:mixed;dominant-baseline:auto;baseline-shift:baseline;text-anchor:start;white-space:normal;shape-padding:0;shape-margin:0;inline-size:0;clip-rule:nonzero;display:inline;overflow:visible;visibility:visible;opacity:1;isolation:auto;mix-blend-mode:normal;color-interpolation:sRGB;color-interpolation-filters:linearRGB;solid-color:#000000;solid-opacity:1;vector-effect:none;fill-opacity:1;fill-rule:nonzero;stroke:none;stroke-width:4.352;stroke-linecap:butt;stroke-linejoin:round;stroke-miterlimit:4;stroke-dasharray:none;stroke-dashoffset:0;stroke-opacity:1;paint-order:normal;color-rendering:auto;image-rendering:auto;shape-rendering:auto;text-rendering:auto;enable-background:accumulate;stop-color:#000000;stop-opacity:1"
         d="m 67.204157,82.549987 c -4.977549,0.673088 -9.747393,2.346707 -14.02189,4.911121 -0.0078,0.280474 -0.01304,0.57034 -0.01304,0.882078 0,0.867022 0.01605,1.57348 0.04817,2.119389 0.0033,0.02796 0.0077,0.04788 0.01104,0.07526 5.413974,-3.590661 11.785028,-5.589906 18.389112,-5.691847 -1.258537,-1.034103 -2.655094,-1.779814 -4.190611,-2.234787 -0.07294,-0.02162 -0.148917,-0.04051 -0.222775,-0.06121 z m 4.93922,5.780153 c -5.076787,4.43e-4 -10.010033,1.256477 -14.397194,3.581486 0.489962,-0.06625 0.955585,-0.100349 1.395863,-0.100349 1.474874,0 2.609655,0.401873 3.409889,1.199179 3.038208,-1.119012 6.279857,-1.713679 9.591442,-1.713977 h 0.004 c 1.442917,1.28e-4 2.872094,0.116096 4.277915,0.335172 -0.219255,-0.47445 -0.440623,-0.932187 -0.665319,-1.361748 -0.329972,-0.649951 -0.677511,-1.254365 -1.038619,-1.823358 -0.852986,-0.07168 -1.710746,-0.116333 -2.573977,-0.116405 z m 0,6.114318 c -2.718783,2.93e-4 -5.382113,0.455173 -7.89854,1.307561 0.393158,0.84883 0.81179,1.88174 1.252367,3.07672 2.121455,-0.69731 4.36013,-1.06948 6.646173,-1.06972 h 0.004 c 2.390862,2.6e-4 4.731387,0.40628 6.939195,1.16706 l -0.243837,-0.8048 c -0.327696,-1.07049 -0.665951,-2.05661 -1.008516,-3.004479 -1.846433,-0.438516 -3.752264,-0.672131 -5.686828,-0.672342 z m 0,6.117332 c -1.937687,1.4e-4 -3.835262,0.30754 -5.635649,0.88408 l 0.148517,0.38434 -1.582514,4.18358 c 2.140825,-1.16051 4.562283,-1.79206 7.069646,-1.79224 h 0.004 c 3.568651,5.3e-4 6.965424,1.28254 9.624562,3.54837 l -1.637711,-5.39481 c -2.4607,-1.17735 -5.183255,-1.81289 -7.986851,-1.81332 z m 0.004,6.11732 c -3.281708,0 -6.376973,1.2986 -8.661196,3.53232 l -3.692876,9.76304 c 0.217909,2.98857 1.505609,5.76911 3.589516,7.85338 1.281791,1.28224 2.828719,2.26455 4.524776,2.88205 l 1.199179,-3.83437 c -1.077981,-0.4205 -2.062466,-1.05568 -2.887066,-1.88056 -1.55296,-1.55324 -2.457567,-3.6649 -2.457567,-5.92466 v -0.004 c 5.5e-4,-2.25973 0.903842,-4.37421 2.457567,-5.92766 1.553232,-1.55297 3.6679,-2.45456 5.927667,-2.45456 2.260138,5.2e-4 4.375217,0.90485 5.928675,2.45857 1.55311,1.55367 2.453554,3.6675 2.453554,5.92767 0,2.21946 -0.880093,4.34471 -2.44653,5.91663 a 2.0034528,2.0034528 0 0 0 -0.007,0.011 2.0034528,2.0034528 0 0 0 -0.004,0 c -0.889364,0.88875 -1.960316,1.5477 -3.121884,1.96084 l 1.10385,3.86246 c 1.807502,-0.60095 3.470902,-1.61274 4.843886,-2.9824 a 2.0034528,2.0034528 0 0 0 0.01105,-0.011 c 2.322572,-2.32296 3.62564,-5.47244 3.62564,-8.75753 a 2.0034528,2.0034528 0 0 0 -0.002,-0.0873 c -0.02315,-3.29642 -1.351113,-6.40091 -3.623632,-8.67425 -2.292958,-2.29335 -5.42855,-3.62888 -8.757533,-3.62965 a 2.0034528,2.0034528 0 0 0 -0.004,0 z m 0,6.11833 c -1.718164,0 -3.300965,0.70394 -4.433454,1.8354 -1.131913,1.1314 -1.837872,2.71132 -1.839414,4.42944 a 2.176259,2.176259 0 0 0 0,0.004 v 0.004 c 0,1.71844 0.703524,3.30108 1.835396,4.43346 0.573119,0.57364 1.263203,1.03592 2.027071,1.35372 l 1.316591,-4.21068 c -0.09327,-0.0656 -0.182401,-0.13716 -0.263919,-0.21877 a 2.176259,2.176259 0 0 0 0,-0.004 c -0.349394,-0.34954 -0.564971,-0.81131 -0.564971,-1.35372 v -0.004 c 4.83e-4,-0.54272 0.214935,-1.00786 0.564971,-1.35773 0.350118,-0.34981 0.814375,-0.56095 1.357729,-0.56095 h 0.004 c 0.540673,0.002 1.005552,0.21631 1.353717,0.56496 0.349378,0.34954 0.561959,0.81533 0.561959,1.35773 0,0.5103 -0.200882,0.99664 -0.561959,1.35774 h -0.003 c -0.103597,0.10342 -0.219466,0.18976 -0.341188,0.26592 l 1.209212,4.23277 c 0.819826,-0.31101 1.575403,-0.78776 2.2077,-1.41895 l 0.004,-0.004 c 1.126195,-1.1262 1.772339,-2.63829 1.825368,-4.22473 a 2.176259,2.176259 0 0 0 0.01004,-0.20873 c 0,-1.71843 -0.703509,-3.30104 -1.835401,-4.43346 -1.131441,-1.13185 -2.71306,-1.83839 -4.430444,-1.83941 z m 14.281798,10.30995 c -0.683086,2.41715 -1.971392,4.64401 -3.779177,6.4535 -0.0013,0.002 -0.0027,0.002 -0.004,0.004 a 1.8306171,1.8306171 0 0 0 -0.004,0.004 c -1.672818,1.67227 -3.704554,2.89977 -5.912613,3.6166 l 1.006511,3.52028 c 2.796783,-0.88626 5.371088,-2.4287 7.485098,-4.53882 a 1.8306171,1.8306171 0 0 0 0.01204,-0.0121 c 1.10329,-1.10354 2.051687,-2.33338 2.833883,-3.65374 z m -28.223403,1.06471 -1.768167,4.6743 c 0.741792,1.19174 1.616892,2.30418 2.621138,3.30854 1.988753,1.98896 4.394658,3.48371 7.023492,4.39532 l 1.091806,-3.49318 c -2.06596,-0.73493 -3.954909,-1.92264 -5.524263,-3.49218 -1.535677,-1.53585 -2.705446,-3.37836 -3.444006,-5.3928 z m 30.908764,7.78013 c -0.580635,0.76452 -1.212034,1.49586 -1.898618,2.18261 a 1.6578007,1.6578007 0 0 0 -0.003,0.004 c -2.459155,2.45858 -5.457205,4.2511 -8.715386,5.26837 0.342863,1.1592 0.697497,2.20341 1.063707,3.13694 3.71653,-1.17455 7.138026,-3.22059 9.951697,-6.01999 a 1.6578007,1.6578007 0 0 0 0.04316,-0.0411 1.6578007,1.6578007 0 0 0 0.004,-0.004 c 0.242212,-0.24227 0.475488,-0.49148 0.706464,-0.7426 -0.03521,-0.1171 -0.06866,-0.21018 -0.104367,-0.33316 z m -33.878118,0.0713 -1.348702,3.56543 c 0.274209,0.30302 0.556806,0.59994 0.846953,0.89011 2.695072,2.69529 5.960798,4.70397 9.522199,5.9096 l 0.989449,-3.16403 c -3.053765,-1.04578 -5.852644,-2.77474 -8.167474,-5.08974 -0.664569,-0.66463 -1.276109,-1.3726 -1.842425,-2.11137 z m -2.581001,6.8248 -1.139974,3.0115 c 3.147881,2.85054 6.83658,4.99393 10.816716,6.33609 0.251424,-0.38427 0.457079,-0.92216 0.615142,-1.61764 l 0.369287,-1.18213 c -3.976709,-1.33408 -7.628934,-3.55867 -10.661171,-6.54782 z m 38.95783,0.0221 c -3.042318,2.99197 -6.702136,5.21051 -10.677227,6.5378 0.581366,0.96773 1.215569,1.77783 1.90464,2.42245 0.01549,0.0135 0.03162,0.0257 0.04716,0.0391 4.090046,-1.5258 7.850588,-3.91328 10.996338,-7.05962 a 1.4849748,1.4849748 0 0 0 0.004,-0.004 l 0.003,-0.003 c 0.273414,-0.27356 0.535925,-0.55628 0.797779,-0.83893 -0.179267,0.009 -0.369919,0.015 -0.577013,0.015 -0.513796,0 -0.947303,-0.0482 -1.300534,-0.14451 -0.353227,-0.12845 -0.674352,-0.35324 -0.963359,-0.67435 -0.07812,-0.0868 -0.156701,-0.18444 -0.234818,-0.29001 z m 5.658731,3.44301 c -0.30027,0.32455 -0.601369,0.64852 -0.915193,0.96236 a 1.3121585,1.3121585 0 0 0 -0.004,0.004 c -2.713831,2.7137 -5.839028,4.91787 -9.225166,6.56591 1.126416,0.22671 2.390291,0.3452 3.805268,0.3452 0.330404,0 0.669856,-0.0186 1.013535,-0.0452 1.877985,-1.19659 3.654706,-2.56572 5.304496,-4.1013 0.0571,-0.5234 0.0883,-1.11206 0.0883,-1.7782 0,-0.79734 -0.026,-1.42329 -0.0672,-1.95281 z m -47.065095,3.03057 c -0.251773,0.72912 -0.406789,1.35242 -0.457598,1.86048 -0.06422,0.61013 0.09634,1.09181 0.481679,1.44504 0.385349,0.35325 1.027583,0.57803 1.926718,0.67436 0.899135,0.12842 2.103334,0.19266 3.612595,0.19266 0.266884,0 0.475027,-0.006 0.721518,-0.009 -2.231591,-1.14764 -4.340494,-2.53982 -6.284912,-4.16352 z" />
    </g>
    <g
       aria-label="ESRAC"
       transform="rotate(-69.280784,-13.060642,-0.30418938)"
       id="name"
       style="font-style:normal;font-variant:normal;font-weight:bold;font-stretch:normal;font-size:5.00076px;line-height:1.25;font-family:'Exo 2';-inkscape-font-specification:'Exo 2 Bold';letter-spacing:0.500806px;word-spacing:0px;stroke-width:0.17048">
      <path
         d="m -26.851595,21.815033 q 0.280042,0 0.565086,0.005 0.285043,0 0.560085,0.01 0.275042,0.01 0.515078,0.03501 l -0.03501,0.555085 h -1.325202 q -0.125019,0 -0.190028,0.06501 -0.06001,0.06501 -0.06001,0.190029 v 1.760267 q 0,0.125019 0.06001,0.190029 0.06501,0.06501 0.190028,0.06501 h 1.325202 l 0.03501,0.555084 q -0.240036,0.02 -0.515078,0.03501 -0.275042,0.01 -0.560085,0.01 -0.285044,0.005 -0.565086,0.005 -0.33005,0 -0.535081,-0.190029 -0.200031,-0.19503 -0.200031,-0.505077 v -2.090318 q 0,-0.315047 0.200031,-0.505076 0.205031,-0.190029 0.535081,-0.190029 z m -0.645098,1.400213 h 2.065314 v 0.540082 h -2.065314 z"
         style="font-style:normal;font-variant:normal;font-weight:bold;font-stretch:normal;font-size:5.00076px;font-family:'Exo 2';-inkscape-font-specification:'Exo 2 Bold';stroke-width:0.17048"
         id="path839" />
      <path
         d="m -23.029659,21.765025 q 0.255039,0 0.555084,0.03 0.300046,0.025 0.585089,0.110016 l -0.05001,0.505077 q -0.220033,-0.005 -0.515078,-0.01 -0.295045,-0.005 -0.580088,-0.005 -0.140021,0 -0.240036,0.01 -0.09502,0.005 -0.155024,0.04001 -0.06001,0.03 -0.08501,0.09501 -0.025,0.06501 -0.025,0.180027 0,0.175027 0.08001,0.255039 0.08501,0.08001 0.285044,0.145022 l 0.665101,0.215033 q 0.415063,0.140021 0.575087,0.380058 0.160025,0.240036 0.160025,0.630095 0,0.295045 -0.07001,0.490075 -0.07001,0.19503 -0.220034,0.305046 -0.150022,0.110017 -0.39506,0.155024 -0.245037,0.05001 -0.600091,0.05001 -0.170026,0 -0.485073,-0.025 -0.315048,-0.02 -0.72011,-0.110017 l 0.05001,-0.540082 q 0.295045,0.005 0.510077,0.015 0.220034,0.005 0.375057,0.01 0.155024,0 0.270041,0 0.200031,0 0.310047,-0.025 0.115018,-0.025 0.160025,-0.100015 0.04501,-0.07501 0.04501,-0.215033 0,-0.120018 -0.03501,-0.190029 -0.03,-0.07501 -0.105016,-0.115017 -0.07001,-0.04501 -0.195029,-0.08001 l -0.700107,-0.240036 q -0.39506,-0.145022 -0.560085,-0.380058 -0.165025,-0.235036 -0.165025,-0.620094 0,-0.300046 0.07001,-0.485074 0.07501,-0.190029 0.225034,-0.295045 0.155023,-0.105016 0.39506,-0.145022 0.245037,-0.04001 0.585089,-0.04001 z"
         style="font-style:normal;font-variant:normal;font-weight:bold;font-stretch:normal;font-size:5.00076px;font-family:'Exo 2';-inkscape-font-specification:'Exo 2 Bold';stroke-width:0.17048"
         id="path841" />
      <path
         d="m -19.408692,21.780027 q 0.45507,0 0.735112,0.09502 0.285043,0.09001 0.415063,0.315048 0.135021,0.220033 0.135021,0.615093 0,0.240037 -0.06501,0.425065 -0.06001,0.180027 -0.205031,0.290044 -0.145022,0.110017 -0.39506,0.140021 v 0.025 q 0.09001,0.015 0.185028,0.07001 0.100015,0.05501 0.185028,0.165025 0.08501,0.105016 0.125019,0.285043 l 0.300046,1.075164 h -0.805123 l -0.26504,-1.05016 q -0.04501,-0.170026 -0.135021,-0.235036 -0.08501,-0.06501 -0.240036,-0.06501 -0.340052,0 -0.575088,0 -0.230035,-0.005 -0.390059,-0.01 -0.155023,-0.005 -0.280042,-0.01 l 0.015,-0.555084 h 1.245189 q 0.200031,0 0.315048,-0.04001 0.120018,-0.04501 0.165025,-0.155024 0.05001,-0.110016 0.05001,-0.305046 0,-0.200031 -0.05001,-0.305046 -0.04501,-0.110017 -0.165025,-0.150023 -0.115017,-0.04501 -0.315048,-0.04501 -0.470071,0 -0.795121,0.005 -0.325049,0.005 -0.445067,0.015 l -0.07501,-0.545083 q 0.210032,-0.025 0.39506,-0.035 0.185028,-0.01 0.405062,-0.01 0.220033,-0.005 0.53008,-0.005 z m -0.575087,0.05001 v 3.450525 h -0.755115 v -3.450525 z"
         style="font-style:normal;font-variant:normal;font-weight:bold;font-stretch:normal;font-size:5.00076px;font-family:'Exo 2';-inkscape-font-specification:'Exo 2 Bold';stroke-width:0.17048"
         id="path843" />
      <path
         d="m -15.354924,21.830035 q 0.09501,0 0.165025,0.05501 0.07501,0.05501 0.100015,0.145022 l 1.000152,3.250495 h -0.780118 l -0.705108,-2.535386 q -0.02,-0.08501 -0.04001,-0.170026 -0.02,-0.09001 -0.035,-0.170026 h -0.13502 q -0.015,0.08001 -0.03501,0.170026 -0.015,0.08501 -0.04001,0.170026 l -0.705107,2.535386 h -0.785119 l 1.005152,-3.250495 q 0.025,-0.09001 0.09502,-0.145022 0.07501,-0.05501 0.170026,-0.05501 z m 0.53008,1.965299 v 0.575087 h -1.790272 v -0.575087 z"
         style="font-style:normal;font-variant:normal;font-weight:bold;font-stretch:normal;font-size:5.00076px;font-family:'Exo 2';-inkscape-font-specification:'Exo 2 Bold';stroke-width:0.17048"
         id="path845" />
      <path
         d="m -11.92125,21.770026 q 0.245037,0 0.415063,0.015 0.175027,0.01 0.320049,0.03501 0.145022,0.025 0.300045,0.07001 l -0.06001,0.560085 q -0.165025,-0.01 -0.305046,-0.015 -0.135021,-0.005 -0.295045,-0.005 -0.155023,-0.005 -0.375057,-0.005 -0.255039,0 -0.400061,0.100015 -0.140021,0.100015 -0.20003,0.350053 -0.06001,0.245037 -0.06001,0.680103 0,0.435066 0.06001,0.685104 0.06001,0.245038 0.20003,0.345053 0.145022,0.100015 0.400061,0.100015 0.345053,0 0.580088,-0.01 0.235036,-0.01 0.465071,-0.03501 l 0.06501,0.560085 q -0.240037,0.07501 -0.490075,0.105016 -0.250038,0.03501 -0.620094,0.03501 -0.535081,0 -0.860131,-0.170026 -0.320048,-0.175027 -0.46507,-0.565086 -0.140022,-0.390059 -0.140022,-1.05016 0,-0.6601 0.140022,-1.050159 0.145022,-0.39006 0.46507,-0.560085 0.32505,-0.175027 0.860131,-0.175027 z"
         style="font-style:normal;font-variant:normal;font-weight:bold;font-stretch:normal;font-size:5.00076px;font-family:'Exo 2';-inkscape-font-specification:'Exo 2 Bold';stroke-width:0.17048"
         id="path847" />
    </g>
  </g>
</svg>
